<svg xmlns="http://www.w3.org/2000/svg" width="32" height="32" viewBox="0 0 32 32">
    <path d="M32 17.97v-4l-4.78-1.993c-.134-.375-.274-.738-.446-1.094l1.93-4.805-2.83-2.828-4.76 1.96c-.364-.175-.735-.323-1.118-.46L17.97 0h-4L11.99 4.734c-.398.14-.78.29-1.16.47l-4.754-1.91L3.25 6.12l1.938 4.712c-.188.387-.34.78-.485 1.188L0 14.03v4l4.707 1.962c.145.406.3.8.488 1.188l-1.902 4.742L6.12 28.75l4.724-1.945c.38.18.766.324 1.164.46L14.03 32h4l1.98-4.758c.38-.14.755-.29 1.114-.46l4.797 1.92 2.83-2.827-1.97-4.773c.168-.36.305-.723.438-1.094L32 17.968zM15.97 22c-3.313 0-6-2.688-6-6s2.687-6 6-6 6 2.688 6 6-2.69 6-6 6z" fill="#010101" id="cog"/>
</svg>
