<svg xmlns="http://www.w3.org/2000/svg" viewBox="0 0 512 512" enable-background="new 0 0 512 512">
    <path id="paperclip-icon" d="M441.95 222.437L266.894 423.51c-40.637 46.678-111.677 51.59-158.355 10.954-46.677-40.642-51.59-111.68-10.955-158.354l171.95-197.505c30.2-34.688 82.994-38.344 117.685-8.14 34.69 30.2 38.343 82.994 8.14 117.687L264.753 338.17c-19.667 22.587-54.043 24.964-76.636 5.298-22.59-19.663-24.964-54.043-5.3-76.635l101.175-116.21 29.512 25.692L212.33 292.528c-5.502 6.316-4.836 15.927 1.483 21.43 6.316 5.494 15.925 4.83 21.43-1.482l130.602-150.022c16.032-18.416 14.094-46.44-4.32-62.478-18.42-16.033-46.445-14.094-62.478 4.324L127.1 301.806c-26.47 30.4-23.272 76.673 7.134 103.145 30.406 26.472 76.674 23.272 103.146-7.134l175.056-201.074 29.514 25.695z"/>
</svg>
