<svg xmlns="http://www.w3.org/2000/svg" width="64" height="64" viewBox="0 0 64 64">
    <path d="M45.414 34.586c-.78-.78-2.048-.78-2.828 0L41 36.172 37.828 33l7-7H48c7.85 0 12-4.84 12-14 0-.693-.36-1.337-.95-1.7-.588-.366-1.325-.4-1.945-.09l-6.71 3.356-1.96-1.96 3.354-6.71c.31-.62.276-1.357-.09-1.947C51.338 2.36 50.694 2 50 2c-9.16 0-14 4.15-14 12v3.17l-7 7L17.828 13l1.586-1.586c.436-.436.646-1.047.57-1.658-.074-.61-.427-1.154-.955-1.47l-10-6c-.787-.474-1.795-.35-2.444.3l-2 2c-.65.65-.773 1.656-.3 2.443l6 10c.316.527.858.88 1.47.955.08.01.163.015.244.015.527 0 1.037-.208 1.414-.586L15 15.828 26.172 27 2.586 50.586c-.22.22-.385.487-.483.782l-2 6c-.24.72-.052 1.51.483 2.046l2 2c.38.38.892.586 1.414.586.21 0 .425-.034.632-.103l6-2c.295-.098.562-.264.782-.483L35 35.828 38.172 39l-1.586 1.586c-.78.78-.78 2.047 0 2.828l18 18c.39.39.902.586 1.414.586s1.024-.195 1.414-.586l6-6c.78-.78.78-2.047 0-2.828l-18-18zM12.397 12.774L8.83 6.83l5.944 3.567-2.377 2.377zM8.92 56.252l-4.38 1.46-.252-.252 1.46-4.38 33.666-33.666C39.79 19.04 40 18.53 40 18v-4c0-3.385.87-6.835 6.644-7.76l-2.433 4.866c-.384.77-.233 1.7.376 2.31l4 4c.61.608 1.54.76 2.31.374l4.865-2.433C54.836 21.13 51.386 22 48 22h-4c-.53 0-1.04.21-1.414.586L8.92 56.252zm47.08.92L40.83 42 44 38.83 59.17 54 56 57.17z"/>
</svg>
