<svg xmlns="http://www.w3.org/2000/svg" width="64" height="64" viewBox="0 0 64 64">
    <path d="M2 48h22c1.104 0 2-.896 2-2s-.896-2-2-2H4V4h17.17l7.416 7.414c.375.375.884.586 1.414.586h30v32H40c-1.104 0-2 .896-2 2s.896 2 2 2h22c1.104 0 2-.896 2-2V10c0-1.104-.896-2-2-2H30.83L23.413.586C23.04.21 22.53 0 22 0H2C.896 0 0 .896 0 2v44c0 1.104.896 2 2 2zM32 64c1.104 0 2-.896 2-2V34.827l4.588 4.587c.39.39.902.586 1.414.586s1.024-.195 1.414-.586c.78-.78.78-2.047 0-2.828l-8-8c-.78-.78-2.048-.78-2.828 0l-8 8c-.78.78-.78 2.047 0 2.828.78.78 2.048.78 2.828 0L30 34.83V62c0 1.104.896 2 2 2z"/>
</svg>
