<svg xmlns="http://www.w3.org/2000/svg" width="20" height="32" viewBox="0 0 20 32">
    <g fill="#010101" id="lightbulb">
        <path d="M10 4.008c3.31 0 6 2.7 6 6.016 0 1.895-.863 3.637-2.373 4.773-2.258 1.707-3.17 3.594-3.484 5.18h-.286c-.312-1.586-1.227-3.473-3.484-5.18-1.508-1.137-2.375-2.88-2.375-4.773 0-3.317 2.69-6.016 6.002-6.016M10 0C4.477 0 0 4.488 0 10.023c0 3.282 1.545 6.15 3.97 7.977 1.114.844 2.034 1.93 2.034 3.43v2.555h7.994V21.43c0-1.5.92-2.586 2.033-3.43 2.427-1.828 3.97-4.695 3.97-7.977C20 4.488 15.523 0 10 0z"/>
        <rect x="6.004" y="27.992" width="7.994" height="4.008"/>
    </g>
</svg>
