<svg xmlns="http://www.w3.org/2000/svg" viewBox="0 0 512 512" enable-background="new 0 0 512 512">
    <path id="globe-icon" d="M256 50C142.23 50 50 142.23 50 256s92.23 206 206 206 206-92.23 206-206S369.77 50 256 50zm148.742 135.737h-43.585c-5.72-26.686-14.79-52.106-27.243-74.615 30.855 16.628 55.783 42.824 70.828 74.615zm12.1 104.737h-49.99c2.192-22.06 2.295-44.87.027-67.895h50.192c4.592 22.244 4.555 45.474-.23 67.894zM237.58 94.256v91.48h-48.334c8.805-35.754 24.692-68.523 48.333-91.48zM182.74 222.58h54.84v67.894h-54.807c-2.46-21.92-2.62-44.637-.034-67.895zm54.84 104.735v91.18c-23.575-22.894-39.44-55.542-48.26-91.18h48.26zm36.84 91.715v-91.715h48.82c-8.89 35.918-24.937 68.798-48.82 91.715zm55.365-128.556H274.42V222.58h55.4c2.437 21.92 2.575 44.638-.035 67.894zM274.42 185.737V93.72c23.95 22.982 40.018 55.98 48.892 92.017h-48.89zm-95.548-75.03c-12.57 22.61-21.716 48.18-27.472 75.03h-44.143c15.173-32.06 40.4-58.425 71.615-75.03zM94.928 222.58h50.75c-2.143 21.793-2.287 44.588.03 67.894h-50.55c-4.78-22.397-4.827-45.626-.23-67.895zm12.82 104.735h43.72c5.67 26.314 14.598 51.4 26.82 73.67-30.606-16.44-55.41-42.282-70.54-73.67zm226.752 73.25c12.106-22.165 20.957-47.103 26.59-73.25h43.16c-14.996 31.12-39.504 56.79-69.75 73.25z"/>
</svg>
