<svg xmlns="http://www.w3.org/2000/svg" viewBox="0 0 512 512" enable-background="new 0 0 512 512">
    <path id="user-3-icon" d="M461.92 461.674H50.084c0-51.094-1.454-71.773 7.715-91.635 9.214-19.96 27.326-32.444 57-39.288 74.72-17.21 74.507-23.09 65.745-39.225-41.266-75.995-48.767-143.44-21.12-189.91 19.39-32.597 54.593-51.29 96.578-51.29 41.67 0 76.652 18.426 95.98 50.554 33.878 56.32 10.36 132.426-20.43 190.474-8.637 16.277-8.832 22.215 65.652 39.398 29.673 6.844 47.785 19.328 57 39.287 9.138 19.792 7.715 39.898 7.715 91.634zM90.12 421.56h331.763c.015-36.077-2.38-44.497-33.693-51.72-42.695-9.842-83.305-18.793-96.595-47.904-6.652-14.57-5.132-31.184 4.52-49.38 23.14-43.624 46.81-108.912 21.493-150.996-12.07-20.067-33.95-31.118-61.604-31.118-27.893 0-49.948 11.253-62.103 31.685-19.833 33.338-11.85 88.105 21.9 150.26 9.838 18.118 11.483 34.726 4.887 49.356-13.3 29.5-54.105 38.25-96.87 48.098-31.315 7.222-33.71 15.642-33.696 51.72z"/>
</svg>
