<svg xmlns="http://www.w3.org/2000/svg" viewBox="0 0 512 512" enable-background="new 0 0 512 512">
    <path id="key-icon" d="M286.53 325.487L241.216 370.8h-43.874v43.873l-45.744-.002v41.346H50v-70.458L195.737 239.82c16.437 39.176 48.977 70.886 90.793 85.667zm139.116-233.15c48.473 48.475 48.47 127.065 0 175.537-48.476 48.476-127.063 48.476-175.538 0-48.473-48.47-48.475-127.06 0-175.536 48.472-48.473 127.065-48.473 175.538 0zm-24.914 24.828c-12.024-12.02-31.517-12.022-43.538 0-12.022 12.023-12.022 31.516 0 43.538 12.02 12.022 31.513 12.02 43.536 0 12.024-12.024 12.022-31.516.002-43.538z"/>
</svg>
