<?xml version="1.0" encoding="utf-8"?>
<!-- License Agreement at http://iconmonstr.com/license/ -->
<!DOCTYPE svg PUBLIC "-//W3C//DTD SVG 1.1//EN" "http://www.w3.org/Graphics/SVG/1.1/DTD/svg11.dtd">
<svg version="1.1" xmlns="http://www.w3.org/2000/svg" xlink="http://www.w3.org/1999/xlink" x="0px" y="0px" viewBox="0 0 512 512" enable-background="new 0 0 512 512" space="preserve"> <path id="key-icon" d="M286.53,325.487l-45.314,45.313h-43.874l0.001,43.873l-45.745-0.002v41.345H50v-70.458l145.737-145.737
C212.174,278.996,244.714,310.706,286.53,325.487z M425.646,92.338c48.473,48.474,48.471,127.064-0.001,175.536
c-48.475,48.476-127.062,48.476-175.537,0.001c-48.473-48.472-48.475-127.062,0-175.537
C298.58,43.865,377.173,43.865,425.646,92.338z M400.732,117.165c-12.024-12.021-31.517-12.022-43.538,0
c-12.022,12.023-12.022,31.516,0,43.538c12.021,12.022,31.513,12.021,43.536-0.001C412.754,148.679,412.752,129.187,400.732,117.165
z"></path> </svg>