<svg xmlns="http://www.w3.org/2000/svg" viewBox="0 0 512 512" enable-background="new 0 0 512 512">
    <path id="newspaper-icon" d="M404.334 211.666H109.667v20h294.667v-20zM198.5 249.084h-88.833v20H198.5v-20zm0 38h-88.833v20H198.5v-20zm205.834-38H315.5v20h88.834v-20zm0 38H315.5v20h88.834v-20zm0 38H109.667v20h294.667v-20zm-108.668-76h-78.332v58h78.332v-58zM432 124v247H80V124h352m30-30H50v324h412V94zm-201.06 97.5l-10.476-44.134h11.48l5.467 30.58 6.124-30.58h11.19l5.42 30.014 5.657-30.014h10.976L295.383 191.5h-11.357l-5.42-29.193-6.184 29.192H260.94zm-13.184-9H230.03v-9.24h15.87v-8.935h-15.87v-7.96h16.83v-9h-27.622V191.5h28.518v-9zm74.058.64c-3.412 0-7.37-.984-10.586-2.633l-.562-.288-2.23 9.048.337.186c2.342 1.294 7.24 2.687 12.465 2.687 13.217 0 17.906-7.474 17.906-13.874 0-6.188-3.662-10.425-11.52-13.33-5.76-2.186-7.677-3.303-7.677-5.613 0-2.223 2.266-3.66 5.77-3.66 3.09 0 6.052.673 8.808 2l.54.26 2.448-8.862-.39-.176c-3.274-1.473-7.048-2.22-11.214-2.22-10.062 0-16.82 5.422-16.82 13.49 0 5.952 4.097 10.396 12.17 13.207 5.16 1.848 6.9 3.264 6.9 5.61.002 2.65-2.312 4.17-6.346 4.17zm-136.777-21.82l15.717 30.18h11.033v-44.134h-9.96v27.052l-14.565-27.052h-12.184V191.5h9.96v-30.18z"/>
</svg>
