<svg xmlns="http://www.w3.org/2000/svg" viewBox="0 0 512 512" enable-background="new 0 0 512 512">
    <path id="login-2-icon" d="M50 298.02v-84.044h142.86V172.23L276.775 256l-83.917 83.77v-41.748H50zM304.447 98.448c-36.184 0-69.513 12.206-96.11 32.714l28.61 28.562c19.632-13.826 42.993-21.275 67.5-21.275 31.4 0 60.92 12.228 83.122 34.43C409.77 195.08 422 224.6 422 256s-12.228 60.92-34.43 83.122c-22.204 22.203-51.724 34.43-83.123 34.43-24.507 0-47.868-7.448-67.5-21.274l-28.61 28.56c26.598 20.51 59.927 32.716 96.11 32.716C391.46 413.554 462 343.014 462 256S391.46 98.447 304.447 98.447z"/>
</svg>
