<svg xmlns="http://www.w3.org/2000/svg" viewBox="0 0 512 512" enable-background="new 0 0 512 512">
    <path id="user-14-icon" d="M461.968 359.358H382.03c-.003-86.998-43.49-45.648-43.49-121.885 0-27.52 18.018-42.455 41.15-42.455 34.182 0 57.97 32.635 25.602 93.66-10.634 20.05 11.323 24.812 34.912 30.254 23.578 5.438 21.764 17.87 21.764 40.426zM71.796 318.933c23.59-5.44 45.546-10.205 34.912-30.254-32.368-61.026-8.58-93.66 25.6-93.66 23.135 0 41.15 14.935 41.15 42.454 0 76.236-43.485 34.887-43.49 121.885H50.033c0-22.558-1.814-34.99 21.764-40.427zm260.32-10.424c-29.67-6.847-57.29-12.84-43.914-38.056 40.715-76.762 10.792-117.812-32.202-117.812-43.842 0-73.027 42.625-32.2 117.812 13.775 25.37-14.884 31.357-43.916 38.055-29.658 6.84-27.377 22.476-27.377 50.85h206.985c0-28.375 2.282-44.01-27.377-50.85z"/>
</svg>
