<svg xmlns="http://www.w3.org/2000/svg" width="64" height="64" viewBox="0 0 64 64">
    <path d="M2 28h24c1.104 0 2-.896 2-2V2c0-1.104-.896-2-2-2H2C.896 0 0 .896 0 2v24c0 1.104.896 2 2 2zM4 4h20v20H4V4zM64 2c0-1.104-.896-2-2-2H38c-1.104 0-2 .896-2 2v24c0 1.104.896 2 2 2h24c1.104 0 2-.896 2-2V2zm-4 22H40V4h20v20zM2 64h25c1.104 0 2-.896 2-2V37c0-1.104-.896-2-2-2H2c-1.104 0-2 .896-2 2v25c0 1.104.896 2 2 2zm2-25h21v21H4V39zM62 36H38c-1.104 0-2 .896-2 2v24c0 1.104.896 2 2 2h24c1.104 0 2-.896 2-2V38c0-1.104-.896-2-2-2zm-2 24H40V40h20v20z"/>
</svg>
