<svg xmlns="http://www.w3.org/2000/svg" width="64" height="64" viewBox="0 0 64 64">
    <path d="M52 64c2.206 0 4-1.794 4-4V4c0-2.206-1.794-4-4-4H26c-1.638 0-3.668.84-4.828 2L10 13.17C8.84 14.33 8 16.36 8 18v42c0 2.206 1.794 4 4 4h40zm0-60v56H12V18h10c2.206 0 4-1.794 4-4V4h26zM22 6.828V14h-7.172L22 6.828zM32 16h12c1.104 0 2-.896 2-2s-.896-2-2-2H32c-1.104 0-2 .896-2 2s.896 2 2 2zM44 22H20c-1.104 0-2 .896-2 2s.896 2 2 2h24c1.104 0 2-.896 2-2s-.896-2-2-2zM44 32H20c-1.104 0-2 .896-2 2s.896 2 2 2h24c1.104 0 2-.896 2-2s-.896-2-2-2zM44 42H20c-1.104 0-2 .896-2 2s.896 2 2 2h24c1.104 0 2-.896 2-2s-.896-2-2-2zM44 52H20c-1.104 0-2 .896-2 2s.896 2 2 2h24c1.104 0 2-.896 2-2s-.896-2-2-2z"/>
</svg>
