<svg xmlns="http://www.w3.org/2000/svg" viewBox="0 0 512 512" enable-background="new 0 0 512 512">
    <path id="quote-12-icon" d="M244.585 235.857c0 40.854-25.817 68.543-63.435 75.984l-7.127-15.405c17.42-6.566 28.47-22.28 28.47-38.115h-29.407v-68.16h71.5v45.697zm100.384 0c0 40.854-25.816 68.543-63.436 75.984l-7.127-15.405c17.42-6.566 28.47-22.28 28.47-38.115h-29.406v-68.16h71.5v45.697zM50.917 446.647C67.583 413.5 86.083 368 85.135 336.277 62.685 309.203 50 274.316 50 238.782c0-100.183 97.19-173.43 206-173.43 108.132 0 206 72.697 206 173.43 0 104.894-115.562 202.853-274.12 163.914C159.084 420.5 95.584 438.5 50.92 446.647zM256 105.47c-91.47 0-165.884 59.804-165.884 133.313 0 38.68 16.694 63.037 40.256 87.055-4.79 35.662-16.29 66.662-16.29 66.662s34-9 72.63-31.56c147.805 39.194 235.17-46.094 235.17-122.157 0-73.51-74.414-133.314-165.882-133.314z"/>
</svg>
