<svg xmlns="http://www.w3.org/2000/svg" viewBox="0 0 512 512" enable-background="new 0 0 512 512">
    <path id="time-5-icon" d="M95.48 251.5c-.28 10.168.375 20.247 2.02 30.42l-43.736 11.237c-2.51-13.768-3.597-27.597-3.294-41.657h45.01zM81.682 365.136l36.756-26.13c-5.326-8.833-9.828-18.217-13.398-28.05L61.284 322.2c5.15 15.188 12.035 29.57 20.4 42.936zm77.62 19.28c-8.357-6.33-16.075-13.458-23.046-21.27l-36.85 26.198c10.907 12.83 23.355 24.312 37.065 34.146l22.83-39.074zM256.413 50C200.2 50 145.248 72.52 108.08 109.027l-35.46-35.46-23.032 126.177 126.177-23.032-35.86-35.86C168.925 112.486 212.625 95 256.413 95c88.92 0 161 72.082 161 161s-72.08 161-161 161c-25.725 0-50.035-6.044-71.603-16.773l-22.748 38.937c28.27 14.59 60.346 22.836 94.352 22.836 113.77 0 206-92.23 206-206s-92.23-206-206-206zM360.1 256.125h-90.45v-101.25h-40.5v141.75H360.1v-40.5z"/>
</svg>
