<svg xmlns="http://www.w3.org/2000/svg" viewBox="0 0 512 512" enable-background="new 0 0 512 512">
    <path id="speech-bubble-15-icon" d="M174.06 354.374c-.032-.008-.063-.014-.094-.02-25.892 15.964-82.983 32.106-123.14 39.41C65.808 364.04 82.44 323.24 81.588 294.79 61.402 270.51 50 239.224 50 207.358c0-89.84 87.383-155.527 185.21-155.527 97.22 0 185.21 65.194 185.21 155.528 0 1.283-.027 2.564-.066 3.844-11.285-6.088-23.506-11.037-36.622-14.68-6.854-60.86-70.842-108.715-148.522-108.715-82.237 0-149.14 53.63-149.14 119.55 0 34.69 15.008 56.53 36.19 78.07-4.305 31.98-14.645 59.78-14.645 59.78s30.542-8.064 65.253-28.275c-1.473 12.684-1.062 25.17 1.19 37.442zM461.43 460.17c-27.634-5.03-66.922-16.138-84.74-27.124-98.1 24.03-169.6-36.424-169.6-101.154 0-62.166 60.553-107.03 127.454-107.03 67.322 0 127.454 45.204 127.454 107.03 0 21.928-7.85 43.457-21.738 60.164-.588 19.578 10.86 47.656 21.17 68.113zM302.524 333.197c0-9.648-7.84-17.47-17.515-17.47-9.674 0-17.516 7.82-17.516 17.47s7.842 17.47 17.515 17.47c9.674 0 17.514-7.82 17.514-17.47zm52.226 0c0-9.648-7.84-17.47-17.515-17.47-9.673 0-17.515 7.82-17.515 17.47s7.842 17.47 17.515 17.47c9.674 0 17.515-7.82 17.515-17.47zm51.59 0c0-9.648-7.843-17.47-17.516-17.47-9.674 0-17.515 7.82-17.515 17.47s7.84 17.47 17.514 17.47c9.673 0 17.515-7.82 17.515-17.47z"/>
</svg>
