<svg xmlns="http://www.w3.org/2000/svg" viewBox="0 0 512 512" enable-background="new 0 0 512 512">
    <path id="time-10-icon" d="M349.657 118.254l20.986-30.542 32.918 22.725-20.89 30.402c-10.177-8.59-21.23-16.18-33.013-22.586zM225.722 49.12v47.7c9.873-1.53 19.982-2.33 30.277-2.33 10.1 0 20.026.768 29.722 2.243V49.12h-60zm201.972 242.065c0 94.824-76.87 171.695-171.695 171.695-94.825 0-171.694-76.87-171.694-171.695 0-94.823 76.87-171.694 171.693-171.694 94.825 0 171.694 76.87 171.694 171.695zm-45 0c0-70.03-56.678-126.694-126.695-126.694-70.032 0-126.694 56.68-126.694 126.695 0 70.03 56.678 126.695 126.693 126.695 70.03 0 126.694-56.676 126.694-126.695zm-93.43 9.042c0 17.396-14.103 31.5-31.5 31.5s-31.5-14.104-31.5-31.5c0-11.3 5.954-21.207 14.894-26.766l11.525-86.606c.236-1.95 1.87-3.428 3.834-3.47 1.963-.043 3.658 1.363 3.98 3.3l13.33 86.447c9.24 5.49 15.436 15.568 15.436 27.097zM267 400.86h-20v-26h20v26zm100-120v20h-26v-20h26zm-220 0v20h26v-20h-26zm194.853 80.712l-14.142 14.142L310.5 358.5l14.142-14.14 17.213 17.212zM186.29 206.01l-14.144 14.142 17.214 17.213 14.142-14.143-17.213-17.213zm141.42 0l14.143 14.142-17.213 17.213-14.142-14.143 17.213-17.213zM172.147 361.572l14.143 14.142L203.5 358.5l-14.142-14.14-17.214 17.213z"/>
</svg>
