<svg xmlns="http://www.w3.org/2000/svg" viewBox="0 0 512 512" enable-background="new 0 0 512 512">
    <path id="database-icon" d="M422.122 355.606v46.524c0 33.066-74.375 59.87-166.122 59.87-91.747 0-166.122-26.804-166.122-59.87v-46.523c10.283 7.39 23.186 13.907 38.485 19.422 34.555 12.45 79.885 19.31 127.637 19.31 47.753 0 93.082-6.858 127.638-19.312 15.3-5.514 28.2-12.03 38.484-19.422zm-38.484-77.818C349.082 290.242 303.753 297.1 256 297.1c-47.752 0-93.082-6.858-127.638-19.312-15.3-5.514-28.2-12.03-38.484-19.42v46.103c0 33.066 74.375 59.87 166.122 59.87 91.747 0 166.122-26.804 166.122-59.87v-46.103c-10.283 7.39-23.184 13.907-38.484 19.42zM256 50c-91.747 0-166.122 26.805-166.122 59.87 0 33.066 74.375 59.87 166.122 59.87 91.747 0 166.122-26.804 166.122-59.87C422.122 76.805 347.747 50 256 50zm127.638 130.428C349.082 192.88 303.753 199.74 256 199.74c-47.752 0-93.082-6.86-127.638-19.312-15.3-5.514-28.2-12.03-38.484-19.422v46.225c0 33.066 74.375 59.87 166.122 59.87 91.747 0 166.122-26.804 166.122-59.87v-46.223c-10.283 7.39-23.184 13.907-38.484 19.42z"/>
</svg>
