<svg xmlns="http://www.w3.org/2000/svg" viewBox="0 0 512 512" enable-background="new 0 0 512 512">
    <path id="brick-8-icon" d="M140.284 148.76h-.234v16.445c-.604 27.71 75.615 27.77 74.693 0v-16.42c-2.213-26.237-72.54-26.37-74.46-.026zm60.855 2.53c0 5.398-10.537 9.8-23.522 9.8-12.967 0-23.512-4.402-23.512-9.8s10.545-9.8 23.512-9.8c12.985 0 23.52 4.402 23.52 9.8zm-142.557 3.06l.15.084-.15-.32L256 50l197.417 105.43v89.8l-188.833 99.538v-91.165L433.92 164.51 255.95 69.8 78.6 163.42l168.817 89.772V344.7L58.583 244.14v-89.79zm394.834 110.46v99.79L264.584 462v-97.67l188.833-99.52zm-235.053-57.862c-.604 27.72 75.624 27.778 74.685 0v-16.43c-2.214-26.227-72.53-26.37-74.45-.016h-.235v16.446zm37.57-23.705c12.967 0 23.52 4.384 23.52 9.79 0 5.4-10.553 9.783-23.52 9.783-12.968 0-23.522-4.384-23.522-9.782 0-5.407 10.554-9.79 23.52-9.79zm37.115-57.577v-16.413c-2.247-26.22-72.53-26.354-74.45-.017h-.235v16.43c-.604 27.736 75.656 27.787 74.684 0zm-37.1-23.697c12.95 0 23.52 4.4 23.52 9.798 0 5.39-10.57 9.8-23.52 9.8-12.984 0-23.52-4.41-23.52-9.8 0-5.398 10.536-9.8 23.52-9.8zm115.22 63.235v-16.42c-2.228-26.23-72.538-26.37-74.433-.018h-.25v16.438c-.622 27.72 75.622 27.778 74.684 0zm-60.635-13.907c0-5.398 10.544-9.79 23.52-9.79s23.537 4.392 23.537 9.79c0 5.398-10.562 9.79-23.537 9.79s-23.52-4.39-23.52-9.79zm-63.118 213V462L58.583 364.6V263.754l188.834 100.543z"/>
</svg>
