<svg xmlns="http://www.w3.org/2000/svg" viewBox="0 0 512 512" enable-background="new 0 0 512 512">
    <path id="share-3-icon" d="M456.363 217.15l-53.11 98.847-13.45-32.978C318.75 319.964 297.6 375.413 293.298 462h-71.764c5.17-110.042 34.897-192.985 141.1-245.604l-13.586-33.318 107.316 34.072zm-235.717 7.227c13.368 10.646 25.29 22.23 35.857 34.786 10.568-12.562 22.508-24.14 35.88-34.79V138.27l35.902.024L257.34 50l-72.6 88.193 35.906.025v86.16zm6.27 79.103c3.347-6.436 6.94-12.67 10.787-18.712-20.825-26.61-49.125-49.452-87.312-68.373l13.59-33.318-108.343 33.048 54.137 99.872 13.448-32.978c41.252 21.448 65.68 49.138 79.76 85.533 5.856-24.093 13.774-45.53 23.935-65.073z"/>
</svg>
