<svg xmlns="http://www.w3.org/2000/svg" viewBox="0 0 512 512" enable-background="new 0 0 512 512">
    <path id="logout-2-icon" d="M228.224 298.02v-84.044h149.86V172.23L462 256l-83.917 83.77v-41.748h-149.86zm72.12 30.056c-21.778 27.928-55.216 45.403-92.79 45.403-31.38 0-60.88-12.222-83.07-34.41-22.19-22.19-34.41-51.69-34.41-83.07 0-31.38 12.22-60.882 34.41-83.07 22.188-22.19 51.69-34.41 83.07-34.41 37.646 0 71.053 17.53 92.79 45.402h47.34c-26.16-50.762-79.09-85.475-140.13-85.475C120.54 98.447 50 168.985 50 256c0 87.01 70.54 157.553 157.554 157.553 61.04 0 113.97-34.715 140.13-85.477h-47.34z"/>
</svg>
