<svg xmlns="http://www.w3.org/2000/svg" viewBox="0 0 512 512" enable-background="new 0 0 512 512">
    <path id="light-bulb-2-icon" d="M299.823 364.41h-87.646c-6.144 0-11.124 4.98-11.124 11.123 0 6.143 4.98 11.122 11.124 11.122h87.647c6.143 0 11.123-4.98 11.123-11.122 0-6.143-4.98-11.123-11.124-11.123zm-2 37.033h-83.646c-6.143 0-11.123 4.98-11.123 11.123s4.98 11.122 11.123 11.122h83.646c6.142 0 11.122-4.98 11.122-11.122s-4.98-11.123-11.123-11.123zM214.75 437.96c21.656 20.02 23.886 24.04 32.53 24.04h16.65c8.45 0 10.532-3.727 33.32-24.04h-82.5zm167.87-266.506c0 75.31-64.766 117.514-64.766 176.943H288.36c.026-73.246 64.233-111.827 64.233-176.943 0-121.89-193.188-122.082-193.188 0 0 65.057 63.094 101.976 64.558 176.943h-29.818c0-59.43-64.767-101.634-64.767-176.943 0-161.856 253.243-162.02 253.243 0z"/>
</svg>
