<?xml version="1.0" encoding="utf-8"?>
<!-- License Agreement at http://iconmonstr.com/license/ -->
<!DOCTYPE svg PUBLIC "-//W3C//DTD SVG 1.1//EN" "http://www.w3.org/Graphics/SVG/1.1/DTD/svg11.dtd">
<svg version="1.1" xmlns="http://www.w3.org/2000/svg" xlink="http://www.w3.org/1999/xlink" x="0px" y="0px" viewBox="0 0 512 512" enable-background="new 0 0 512 512" space="preserve"> <path id="light-bulb-2-icon" d="M299.823,364.41h-87.646c-6.144,0-11.124,4.979-11.124,11.123c0,6.143,4.98,11.122,11.124,11.122
h87.647c6.143,0,11.123-4.979,11.123-11.122C310.947,369.39,305.967,364.41,299.823,364.41z M297.822,401.443h-83.645
c-6.143,0-11.123,4.98-11.123,11.123s4.98,11.122,11.123,11.122h83.646c6.142,0,11.122-4.979,11.122-11.122
S303.965,401.443,297.822,401.443z M214.75,437.961C236.406,457.979,238.636,462,247.28,462h16.65
c8.45,0,10.532-3.727,33.319-24.039H214.75z M382.621,171.454c0,75.31-64.767,117.514-64.767,176.943h-29.493
c0.025-73.246,64.232-111.827,64.232-176.943c0-121.891-193.188-122.082-193.188,0c0,65.057,63.094,101.976,64.558,176.943h-29.818
c0-59.43-64.767-101.634-64.767-176.943C129.379,9.598,382.621,9.433,382.621,171.454z"></path> </svg>