<?xml version="1.0" encoding="utf-8"?>
<!-- License Agreement at http://iconmonstr.com/license/ -->
<!DOCTYPE svg PUBLIC "-//W3C//DTD SVG 1.1//EN" "http://www.w3.org/Graphics/SVG/1.1/DTD/svg11.dtd">
<svg version="1.1" xmlns="http://www.w3.org/2000/svg" xlink="http://www.w3.org/1999/xlink" x="0px" y="0px" viewBox="0 0 512 512" enable-background="new 0 0 512 512" space="preserve"> <path id="light-bulb-14-icon" d="M402.756,75.107l-46.11,33.064c-55.803-94.854-237.082-73.668-237.082,63.278
c0,34.158,13.325,61.504,27.885,86.737l-61.536,44.127l23.331,32.536l316.845-227.208L402.756,75.107z M149.591,171.45
c0-104.349,141.129-119.36,182.134-45.407L172.061,240.539C159.778,219.189,149.591,197.591,149.591,171.45z M214.15,348.396
h-29.818c0-9.599-1.697-18.747-4.531-27.659l25.321-18.168C210.322,316.408,213.819,331.425,214.15,348.396z M204.937,437.96h82.501
c-22.788,20.314-24.87,24.04-33.319,24.04h-16.651C228.821,462,226.593,457.979,204.937,437.96z M299.132,412.566
c0,6.142-4.979,11.122-11.121,11.122h-83.646c-6.143,0-11.124-4.98-11.124-11.122c0-6.144,4.981-11.124,11.124-11.124h83.645
C294.153,401.442,299.132,406.423,299.132,412.566z M301.134,375.532c0,6.143-4.979,11.122-11.121,11.122h-87.65
c-6.143,0-11.124-4.979-11.124-11.122c0-6.144,4.981-11.123,11.124-11.123h87.648C296.155,364.409,301.134,369.389,301.134,375.532z
M335.721,208.864l36.604-26.264c-5.895,68.459-64.281,109.364-64.281,165.796h-29.494
C278.568,290.244,319.037,253.941,335.721,208.864z"></path> </svg>