<svg xmlns="http://www.w3.org/2000/svg" viewBox="0 0 512 512" enable-background="new 0 0 512 512">
    <path id="light-bulb-14-icon" d="M402.756 75.107l-46.11 33.064c-55.803-94.853-237.082-73.667-237.082 63.28 0 34.157 13.325 61.503 27.885 86.736l-61.537 44.127 23.33 32.536L426.09 107.64l-23.334-32.533zM149.59 171.45c0-104.35 141.13-119.36 182.135-45.407L172.06 240.54c-12.282-21.35-22.47-42.95-22.47-69.09zm64.56 176.946h-29.818c0-9.6-1.697-18.747-4.53-27.66l25.32-18.167c5.2 13.838 8.697 28.855 9.028 45.826zm-9.213 89.564h82.5C264.65 458.274 262.568 462 254.12 462h-16.652c-8.647 0-10.875-4.02-32.53-24.04zm94.195-25.394c0 6.142-4.98 11.122-11.12 11.122h-83.647c-6.143 0-11.124-4.98-11.124-11.122 0-6.144 4.982-11.124 11.125-11.124h83.645c6.143 0 11.122 4.98 11.122 11.124zm2.002-37.034c0 6.143-4.98 11.122-11.12 11.122h-87.65c-6.144 0-11.125-4.98-11.125-11.122 0-6.144 4.98-11.123 11.123-11.123h87.648c6.145 0 11.124 4.98 11.124 11.122zm34.587-166.668l36.605-26.264c-5.895 68.46-64.28 109.364-64.28 165.796H278.55c.018-58.152 40.487-94.455 57.17-139.532z"/>
</svg>
