<svg xmlns="http://www.w3.org/2000/svg" viewBox="0 0 512 512" enable-background="new 0 0 512 512">
    <path id="tag-4-icon" d="M158.594 123.51c9.122 9.12 9.122 23.962 0 33.083-9.14 9.138-23.94 9.144-33.08 0-9.122-9.122-9.122-23.962 0-33.084 9.137-9.142 23.935-9.144 33.08 0zM462 277.368l-184.63 184.63L50 234.5V50h184.5L462 277.37zm-283.885-173.38c-9.632-9.632-22.44-14.937-36.062-14.937-13.623 0-26.43 5.307-36.062 14.94-19.884 19.884-19.884 52.24 0 72.125 9.633 9.632 22.44 14.937 36.063 14.937 13.62 0 26.43-5.305 36.062-14.937 19.885-19.886 19.885-52.24 0-72.126z"/>
</svg>
