<svg xmlns="http://www.w3.org/2000/svg" viewBox="0 0 512 512" enable-background="new 0 0 512 512">
    <path id="phone-2-icon" d="M310.228 461.635h-.005c-22.392 0-45.07-10.66-67.404-31.68-26.19-24.65-53.494-65.073-81.15-120.15-39.155-77.978-54.34-135.846-46.42-176.91 8.452-43.82 35.722-54.92 94.173-82.53l67.812 135.003-45.293 22.744c-2.02 5.705.36 27.58 15.398 57.9 15.366 30.983 31.744 46.438 37.644 48.303 2.65-1.306 45.26-22.558 45.26-22.558l68.54 134.908c-54.632 27.318-66.128 34.97-88.556 34.97zM149.616 139.523c-4.34 22.506-.347 67.592 43.33 154.576 25.813 51.4 50.662 88.535 73.86 110.366 15.627 14.71 30.235 22.167 43.42 22.168 11.252 0 19.322-4.463 41.402-15.51l-36.86-72.55c-11.914 5.958-14.728 7.343-15.6 7.758-25.606 12.493-50.994-13.325-67.24-37.285-14.213-20.96-26.108-46.816-31.82-69.167-10.067-39.39 2.085-55.454 14.053-61.995l.54-.283 15.545-7.806-36.573-72.812c-25.23 12.69-39.27 17.73-44.056 42.54z"/>
</svg>
