<?xml version="1.0" encoding="utf-8"?>
<!-- License Agreement at http://iconmonstr.com/license/ -->
<!DOCTYPE svg PUBLIC "-//W3C//DTD SVG 1.1//EN" "http://www.w3.org/Graphics/SVG/1.1/DTD/svg11.dtd">
<svg version="1.1" xmlns="http://www.w3.org/2000/svg" xlink="http://www.w3.org/1999/xlink" x="0px" y="0px" viewBox="0 0 512 512" enable-background="new 0 0 512 512" space="preserve"> <path id="phone-2-icon" d="M310.228,461.635c-0.002,0-0.003,0-0.005,0c-22.392-0.001-45.07-10.66-67.404-31.681
c-26.19-24.648-53.493-65.072-81.148-120.149c-39.156-77.978-54.341-135.846-46.42-176.91c8.451-43.82,35.721-54.919,94.172-82.529
l67.812,135.002l-45.293,22.744c-2.019,5.705,0.36,27.58,15.398,57.9c15.366,30.983,31.744,46.438,37.644,48.303
c2.651-1.306,45.26-22.558,45.26-22.558l68.54,134.908C344.152,453.983,332.656,461.635,310.228,461.635z M149.616,139.523
c-4.341,22.506-0.347,67.592,43.331,154.576c25.812,51.402,50.661,88.536,73.858,110.367c15.628,14.709,30.236,22.167,43.42,22.168
c11.253,0,19.323-4.463,41.403-15.511l-36.859-72.55c-11.915,5.959-14.729,7.344-15.6,7.759
c-25.607,12.493-50.995-13.325-67.242-37.285c-14.212-20.96-26.107-46.816-31.819-69.167c-10.067-39.389,2.085-55.454,14.053-61.995
l0.54-0.283l15.544-7.806l-36.573-72.812C168.442,109.674,154.402,114.714,149.616,139.523z"></path> </svg>